<?xml version="1.0" standalone="no"?>
<!DOCTYPE svg PUBLIC "-//W3C//DTD SVG 20010904//EN"
 "http://www.w3.org/TR/2001/REC-SVG-20010904/DTD/svg10.dtd">
<svg version="1.0" xmlns="http://www.w3.org/2000/svg"
 width="240.000000pt" height="240.000000pt" viewBox="0 0 240.000000 240.000000"
 preserveAspectRatio="xMidYMid meet">
<metadata>
Created by potrace 1.14, written by Peter Selinger 2001-2017
</metadata>
<g transform="translate(0.000000,240.000000) scale(0.100000,-0.100000)"
fill="#000000" stroke="none">
<path d="M254 2189 c-11 -6 -28 -23 -37 -39 -15 -26 -17 -95 -17 -764 l0 -737
25 -24 c31 -32 69 -32 100 0 l25 24 0 701 0 700 700 0 701 0 24 25 c14 13 25
36 25 50 0 14 -11 37 -25 50 l-24 25 -738 -1 c-475 0 -745 -4 -759 -10z"/>
<path d="M498 1933 c-14 -9 -31 -27 -37 -40 -8 -16 -11 -248 -11 -734 l0 -710
25 -24 c31 -32 69 -32 100 0 l25 24 0 676 0 675 675 0 676 0 24 25 c32 31 32
69 0 100 l-24 25 -713 0 c-646 -1 -715 -2 -740 -17z"/>
<path d="M751 1686 c-51 -29 -50 -13 -51 -733 0 -500 3 -679 12 -698 25 -56
10 -55 738 -55 702 0 695 0 732 44 16 20 17 67 18 699 0 495 -3 684 -12 700
-29 55 14 52 -727 54 -557 2 -690 0 -710 -11z m1299 -736 l0 -600 -600 0 -600
0 0 600 0 600 600 0 600 0 0 -600z"/>
</g>
</svg>
